{
	"patcher" : 	{
		"fileversion" : 1,
		"appversion" : 		{
			"major" : 6,
			"minor" : 1,
			"revision" : 6,
			"architecture" : "x86"
		}
,
		"rect" : [ 29.0, 69.0, 640.0, 480.0 ],
		"bglocked" : 0,
		"openinpresentation" : 0,
		"default_fontsize" : 12.0,
		"default_fontface" : 0,
		"default_fontname" : "Andale Mono",
		"gridonopen" : 0,
		"gridsize" : [ 15.0, 15.0 ],
		"gridsnaponopen" : 0,
		"statusbarvisible" : 2,
		"toolbarvisible" : 1,
		"boxanimatetime" : 200,
		"imprint" : 0,
		"enablehscroll" : 1,
		"enablevscroll" : 1,
		"devicewidth" : 0.0,
		"description" : "",
		"digest" : "",
		"tags" : "",
		"boxes" : [ 			{
				"box" : 				{
					"comment" : "",
					"id" : "obj-1",
					"maxclass" : "inlet",
					"numinlets" : 0,
					"numoutlets" : 1,
					"outlettype" : [ "" ],
					"patching_rect" : [ 87.0, 22.0, 25.0, 25.0 ]
				}

			}
, 			{
				"box" : 				{
					"fontname" : "Andale Mono",
					"fontsize" : 12.0,
					"frgb" : 0.0,
					"id" : "obj-543",
					"linecount" : 2,
					"maxclass" : "textedit",
					"numinlets" : 1,
					"numoutlets" : 4,
					"outlettype" : [ "", "int", "", "" ],
					"parameter_enable" : 0,
					"patching_rect" : [ 87.0, 181.0, 148.0, 67.0 ],
					"presentation" : 1,
					"presentation_linecount" : 2,
					"presentation_rect" : [ 31.0, 522.5, 148.0, 67.0 ],
					"rounded" : 0.0,
					"text" : "note len 50;\rcc c slew 500;\r",
					"varname" : "#1text"
				}

			}
, 			{
				"box" : 				{
					"fontname" : "Andale Mono",
					"fontsize" : 12.0,
					"id" : "obj-544",
					"linecount" : 3,
					"maxclass" : "message",
					"numinlets" : 2,
					"numoutlets" : 1,
					"outlettype" : [ "" ],
					"patching_rect" : [ 124.0, 351.0, 139.0, 45.0 ],
					"text" : ";\rnote len 50;\rcc c slew 500;\r"
				}

			}
, 			{
				"box" : 				{
					"fontname" : "Andale Mono",
					"fontsize" : 12.0,
					"id" : "obj-545",
					"maxclass" : "newobj",
					"numinlets" : 1,
					"numoutlets" : 3,
					"outlettype" : [ "int", "float", "bang" ],
					"patching_rect" : [ 87.0, 67.0, 75.0, 20.0 ],
					"text" : "t 1 0.5 b"
				}

			}
, 			{
				"box" : 				{
					"fontname" : "Andale Mono",
					"fontsize" : 12.0,
					"id" : "obj-546",
					"maxclass" : "newobj",
					"numinlets" : 2,
					"numoutlets" : 1,
					"outlettype" : [ "" ],
					"patching_rect" : [ 24.0, 103.0, 68.0, 20.0 ],
					"text" : "pipe 200"
				}

			}
, 			{
				"box" : 				{
					"fontname" : "Andale Mono",
					"fontsize" : 12.0,
					"id" : "obj-547",
					"maxclass" : "message",
					"numinlets" : 2,
					"numoutlets" : 1,
					"outlettype" : [ "" ],
					"patching_rect" : [ 87.0, 148.0, 133.0, 18.0 ],
					"text" : "bgcolor 1 $1 $1 1"
				}

			}
, 			{
				"box" : 				{
					"fontname" : "Andale Mono",
					"fontsize" : 12.0,
					"id" : "obj-548",
					"maxclass" : "newobj",
					"numinlets" : 1,
					"numoutlets" : 1,
					"outlettype" : [ "" ],
					"patching_rect" : [ 87.0, 306.0, 75.0, 20.0 ],
					"text" : "prepend \\;"
				}

			}
, 			{
				"box" : 				{
					"fontname" : "Andale Mono",
					"fontsize" : 12.0,
					"id" : "obj-549",
					"maxclass" : "newobj",
					"numinlets" : 2,
					"numoutlets" : 2,
					"outlettype" : [ "", "" ],
					"patching_rect" : [ 87.0, 272.0, 83.0, 20.0 ],
					"text" : "route text"
				}

			}
 ],
		"lines" : [ 			{
				"patchline" : 				{
					"destination" : [ "obj-545", 0 ],
					"disabled" : 0,
					"hidden" : 0,
					"source" : [ "obj-1", 0 ]
				}

			}
, 			{
				"patchline" : 				{
					"destination" : [ "obj-549", 0 ],
					"disabled" : 0,
					"hidden" : 0,
					"source" : [ "obj-543", 0 ]
				}

			}
, 			{
				"patchline" : 				{
					"destination" : [ "obj-544", 0 ],
					"disabled" : 0,
					"hidden" : 0,
					"source" : [ "obj-545", 2 ]
				}

			}
, 			{
				"patchline" : 				{
					"destination" : [ "obj-546", 0 ],
					"disabled" : 0,
					"hidden" : 0,
					"source" : [ "obj-545", 0 ]
				}

			}
, 			{
				"patchline" : 				{
					"destination" : [ "obj-547", 0 ],
					"disabled" : 0,
					"hidden" : 0,
					"source" : [ "obj-545", 1 ]
				}

			}
, 			{
				"patchline" : 				{
					"destination" : [ "obj-547", 0 ],
					"disabled" : 0,
					"hidden" : 0,
					"source" : [ "obj-546", 0 ]
				}

			}
, 			{
				"patchline" : 				{
					"destination" : [ "obj-543", 0 ],
					"disabled" : 0,
					"hidden" : 0,
					"source" : [ "obj-547", 0 ]
				}

			}
, 			{
				"patchline" : 				{
					"destination" : [ "obj-544", 1 ],
					"disabled" : 0,
					"hidden" : 0,
					"source" : [ "obj-548", 0 ]
				}

			}
, 			{
				"patchline" : 				{
					"destination" : [ "obj-548", 0 ],
					"disabled" : 0,
					"hidden" : 0,
					"source" : [ "obj-549", 0 ]
				}

			}
 ],
		"dependency_cache" : [  ]
	}

}
